<?xml version="1.0" encoding="UTF-8"?>
<svg id="Layer_1" data-name="Layer 1" xmlns="http://www.w3.org/2000/svg" version="1.1" viewBox="0 0 100 100">
  <defs>
    <style>
      .cls-1 {
        fill: #000;
        stroke-width: 0px;
      }
    </style>
  </defs>
  <path id="b" class="cls-1" d="M81.4,16.8c-.3.3-.7.8-.7,1.3,0,.8,1,2,2.8,3.8,7.6,7.3,11.4,16.3,11.4,27.1,0,12-4.1,21.6-11.9,29-1.6,1.5-2.3,2.6-2.3,3.6s.3,1,.7,1.5c.3.3,1,.7,1.5.7,1.8,0,4.3-2.1,7.6-6.3,6.4-7.9,9.3-16.6,9.5-28.4.1-11.9-3.6-19.9-10.9-28.2-2.6-3-4.8-4.5-6.3-4.5s-1,.2-1.5.5h0Z"/>
  <path id="e" class="cls-1" d="M58.5,51.1c-2.9-.7,8.9-14.6-12-31.1,0,0,2.7,8.7-11,28-13.8,19.3,6.1,30.9,6.1,30.9,0,0-9.3-5,1.5-22.7,1.9-3.2,4.5-6.1,7.6-12.7,0,0,2.8,4,1.3,12.5-2.2,12.9,9.5,9.2,9.6,9.4,4.1,4.8-3.4,13.2-3.8,13.5s21.2-13,5.8-33.1c-1,1-2.4,6-5.3,5.3h0Z"/>
  <path id="f" class="cls-1" d="M18.6,16.8c.3.3.7.8.7,1.3,0,.8-1,2-2.8,3.8-7.6,7.3-11.4,16.3-11.4,27.1,0,11.9,4.1,21.5,11.9,29,1.6,1.4,2.3,2.6,2.3,3.6s-.3,1-.7,1.5c-.3.3-1,.7-1.5.7-1.8,0-4.3-2.1-7.6-6.3C3.1,69.5.2,60.9,0,49c-.1-11.9,3.6-19.9,10.9-28.2,2.6-3,4.8-4.5,6.3-4.5s1,.2,1.5.5h0Z"/>
</svg>