<?xml version="1.0" encoding="utf-8"?>
<!-- Generator: Adobe Illustrator 28.3.0, SVG Export Plug-In . SVG Version: 6.00 Build 0)  -->
<svg version="1.1" id="Layer_1" xmlns="http://www.w3.org/2000/svg" xmlns:xlink="http://www.w3.org/1999/xlink" x="0px" y="0px"
	 viewBox="0 0 144.5 105.5" style="enable-background:new 0 0 144.5 105.5;" xml:space="preserve">
<style type="text/css">
	.st0{fill:#FF0000;}
	.st1{fill:#FFFFFF;}
</style>
<g>
	<path class="st0" d="M130.5,23.5c-1.4-5.2-5.5-9.3-10.7-10.7c-9.5-2.5-47.5-2.5-47.5-2.5s-38,0-47.5,2.5
		c-5.2,1.4-9.3,5.5-10.7,10.7c-2.5,9.5-2.5,29.2-2.5,29.2s0,19.8,2.5,29.2c1.4,5.2,5.5,9.3,10.7,10.7c9.5,2.5,47.5,2.5,47.5,2.5
		s38,0,47.5-2.5c5.2-1.4,9.3-5.5,10.7-10.7c2.5-9.5,2.5-29.2,2.5-29.2S133,33,130.5,23.5z"/>
	<polygon class="st1" points="60.1,71 91.7,52.8 60.1,34.5 	"/>
</g>
</svg>
